<svg height='300px' width='300px'  fill="#000000" xmlns="http://www.w3.org/2000/svg" xmlns:xlink="http://www.w3.org/1999/xlink" version="1.1" x="0px" y="0px" viewBox="0 0 100 100" enable-background="new 0 0 100 100" xml:space="preserve"><path d="M84.081,0H15.919C7.141,0,0,7.141,0,15.919s7.141,15.919,15.919,15.919c0.262,0,0.51-0.052,0.748-0.126v25.832  c0,5.79,4.71,10.5,10.5,10.5h45.667c5.79,0,10.5-4.71,10.5-10.5V31.838h0.748c8.777,0,15.919-7.141,15.919-15.919S92.858,0,84.081,0  z M65.667,5v58.044h-6V5H65.667z M15.919,26.838C9.898,26.838,5,21.939,5,15.919S9.898,5,15.919,5h0.748v21.964  C16.429,26.889,16.181,26.838,15.919,26.838z M21.667,57.544V5h33v58.044h-27.5C24.134,63.044,21.667,60.576,21.667,57.544z   M72.833,63.044h-2.166V5h7.666v52.544C78.333,60.576,75.865,63.044,72.833,63.044z M84.081,26.838h-0.748V5h0.748  C90.102,5,95,9.898,95,15.919S90.102,26.838,84.081,26.838z"></path><g><path d="M79.773,86.09L69.34,75.656c-0.498-0.498-1.153-0.739-1.805-0.729c-0.012,0-0.023-0.004-0.035-0.004   c-0.87,0-1.635,0.445-2.083,1.12L55.227,86.234c-0.977,0.977-0.977,2.559,0,3.535c0.488,0.488,1.128,0.732,1.768,0.732   s1.279-0.244,1.768-0.732L65,83.531V97.5c0,1.381,1.119,2.5,2.5,2.5s2.5-1.119,2.5-2.5V83.387l6.238,6.238   c0.977,0.977,2.559,0.977,3.535,0S80.75,87.066,79.773,86.09z"></path><path d="M41.238,85.154L35,91.393V77.424c0-1.381-1.119-2.5-2.5-2.5s-2.5,1.119-2.5,2.5v14.113l-6.238-6.238   c-0.976-0.977-2.56-0.977-3.535,0c-0.977,0.977-0.977,2.56,0,3.535l10.434,10.434c0.488,0.488,1.128,0.732,1.768,0.732   c0.012,0,0.024-0.003,0.037-0.004c0.012,0,0.023,0.004,0.035,0.004c0.87,0,1.634-0.445,2.082-1.119l10.191-10.192   c0.977-0.977,0.977-2.56,0-3.535C43.798,84.178,42.214,84.178,41.238,85.154z"></path></g></svg>