<svg height='300px' width='300px'  fill="#000000" xmlns="http://www.w3.org/2000/svg" xmlns:xlink="http://www.w3.org/1999/xlink" version="1.1" x="0px" y="0px" viewBox="0 0 100 100" style="enable-background:new 0 0 100 100;" xml:space="preserve"><g><path d="M80.6895523,74.6193848c3.4946289,0,6.3275757-2.8328857,6.3275757-6.3274536   c0-3.4945068-2.8329468-6.3273926-6.3275757-6.3273926c-3.4945068,0-6.3273926,2.8328857-6.3273926,6.3273926   C74.3621597,71.786499,77.1950455,74.6193848,80.6895523,74.6193848z"></path><path d="M83.3638077,77.4033813H51.3917046c-2.0175781,0-3.6531982,1.2012939-3.6531982,3.6531982   s1.6356201,3.6531982,3.6531982,3.6531982h31.9721031c2.0176392,0,3.6533203-0.9887695,3.6533203-3.6531982   S85.3814468,77.4033813,83.3638077,77.4033813z"></path><path d="M66.6496964,58.5892944v3.7628174h-5.1876793c3.0687218-2.3381348,2.4111938-6.7949829-0.876709-6.7949829h-8.2928467   c-1.5535889,0-2.8129883,0.8685913-2.8129883,2.8129883s1.2593994,2.8129272,2.8129883,2.8129272h3.1052856   c-5.9182739,5.9532471-4.3435059,13.4363403,2.1918945,13.4363403H67.600502c2.8241577,0,5.1134644-2.2893066,5.1134644-5.1134033   v-10.916687c0-1.6745605-0.7281494-3.0321655-3.0321655-3.0321655S66.6496964,56.9147339,66.6496964,58.5892944z"></path><path d="M57.078228,20.5551758c4.1965942,0,7.598629-3.4020996,7.598629-7.5987549   c0-4.1967163-3.4020348-7.5987549-7.598629-7.5987549c-4.1967163,0-7.5987549,3.4020386-7.5987549,7.5987549   C49.4794731,17.1530762,52.8815117,20.5551758,57.078228,20.5551758z"></path><path d="M66.9828873,50.9331665c1.1825562-2.9830933-0.0596313-4.6352539-2.2445679-5.4718628l-12.1901207-4.6673584v-14.710022   c0-2.7030029-1.1266479-5.3411255-3.2382812-7.0284424c-3.4309082-2.7415161-8.2858276-2.4780273-11.3950195,0.484314   L21.2853184,35.3845215c-2.095459,1.996582-3.5076294,4.6033936-4.0354614,7.4492188l-4.2393188,22.8580322   c-0.1848755,0.9967651,0.5802002,1.9168091,1.5939941,1.9168091h8.3526001v21.8461914   c0,2.8649902,0.4692993,5.187561,5.187561,5.187561c4.7182026,0,5.1875019-2.3225708,5.1875019-5.187561V67.6085815h8.145813   c1.0336914,0,1.8034058-0.9544067,1.5844116-1.9646606l-5.0540771-23.3156128l6.5027466-6.5027466v7.5404053   c0,1.9245605,1.1947021,3.6468506,2.9972534,4.3210449l14.355896,5.3690796   C63.8632011,53.8037109,65.8003311,53.9161987,66.9828873,50.9331665z"></path></g></svg>