<svg height='300px' width='300px'  fill="#000000" xmlns="http://www.w3.org/2000/svg" xmlns:xlink="http://www.w3.org/1999/xlink" version="1.0" x="0px" y="0px" viewBox="0 0 74 74" style="enable-background:new 0 0 74 74;" xml:space="preserve"><g><path d="M68.51,17.32H5.49C5.22,17.32,5,17.54,5,17.82c0,0.27,0.22,0.49,0.49,0.49h32.99v41.52c0,0.27,0.22,0.49,0.49,0.49   s0.49-0.22,0.49-0.49V18.31h29.04c0.27,0,0.49-0.22,0.49-0.49C69,17.54,68.78,17.32,68.51,17.32z"></path><path d="M5.49,14.66h63.01c0.27,0,0.49-0.22,0.49-0.49c0-0.27-0.22-0.49-0.49-0.49H5.49C5.22,13.68,5,13.9,5,14.17   C5,14.44,5.22,14.66,5.49,14.66z"></path><path d="M29.72,44.06l-1.59,0.38c-0.06,0.01-0.12-0.02-0.14-0.07l-1.52-4.16c-0.16-0.43-0.57-0.73-1.04-0.73h-4.38   c-0.06,0-0.12-0.05-0.12-0.12v-3.21c0-0.27-0.22-0.49-0.49-0.49c-0.27,0-0.49,0.22-0.49,0.49v3.21c0,0.61,0.49,1.1,1.1,1.1h4.38   c0.05,0,0.09,0.03,0.11,0.08l1.52,4.16c0.16,0.44,0.58,0.73,1.03,0.73c0.09,0,0.17-0.01,0.26-0.03l1.59-0.38   c0.26-0.06,0.43-0.33,0.37-0.59C30.26,44.16,29.99,44,29.72,44.06z"></path><path d="M20.52,35.26c0.99,0,1.8-0.8,1.8-1.79c0-0.99-0.81-1.79-1.8-1.79c-0.99,0-1.79,0.8-1.79,1.79   C18.72,34.46,19.53,35.26,20.52,35.26z M20.52,32.66c0.45,0,0.81,0.36,0.81,0.81c0,0.45-0.36,0.81-0.81,0.81   c-0.45,0-0.81-0.36-0.81-0.81C19.71,33.02,20.07,32.66,20.52,32.66z"></path><path d="M24.4,44c-0.83,0.59-1.79,0.83-2.87,0.69c-1.01-0.13-1.91-0.65-2.54-1.46c-0.63-0.81-0.9-1.81-0.77-2.82   c0.06-0.45,0.21-0.9,0.44-1.3c0.14-0.24,0.05-0.54-0.18-0.67c-0.24-0.14-0.54-0.05-0.67,0.18c-0.29,0.51-0.48,1.09-0.56,1.67   c-0.34,2.63,1.53,5.05,4.16,5.39c0.24,0.03,0.47,0.05,0.71,0.05c1.05,0,2.03-0.31,2.86-0.91c0.22-0.16,0.27-0.47,0.11-0.69   C24.93,43.89,24.62,43.85,24.4,44z"></path><path d="M59.07,29.81c-3.36-0.94-6.74-0.94-9.8-0.01c-1.23,0.38-2,1.47-1.81,2.59c0.17,1.03,0.41,1.89,0.74,2.62   c0.29,0.63,0.98,1.03,1.75,1.03c0.11,0,0.22-0.01,0.32-0.02c2.59-0.38,5.23-0.39,7.85-0.02c0.95,0.13,1.84-0.35,2.12-1.14   c0.23-0.64,0.44-1.39,0.65-2.29C61.18,31.36,60.39,30.18,59.07,29.81z M59.93,32.34C59.93,32.34,59.93,32.34,59.93,32.34   c-0.2,0.87-0.4,1.58-0.62,2.19c-0.12,0.34-0.58,0.56-1.05,0.49c-2.71-0.38-5.45-0.38-8.13,0.02c-0.44,0.06-0.89-0.12-1.03-0.44   c-0.29-0.65-0.51-1.42-0.66-2.37c-0.1-0.63,0.37-1.25,1.13-1.49c1.43-0.44,2.93-0.65,4.48-0.65c1.56,0,3.17,0.22,4.76,0.67   C59.61,30.98,60.09,31.66,59.93,32.34z"></path><path d="M59.93,49.2l-0.49,0.09c-3.12,0.56-5.59,1.01-10.72-0.08c-0.22-0.05-0.45,0.06-0.55,0.27c-0.45,0.95-0.49,3.16-0.49,3.39   c-0.03,0.77,0.31,2.32,1.84,2.64c1.72,0.36,3.49,0.54,5.15,0.54c1.67,0,3.22-0.18,4.47-0.55c1.47-0.43,1.82-1.9,1.81-2.61   c0-0.25-0.04-2.46-0.49-3.41C60.37,49.28,60.15,49.17,59.93,49.2z M58.87,54.55c-1.83,0.54-5.19,0.81-9.14-0.01   c-1.1-0.23-1.06-1.57-1.06-1.64c0.01-0.52,0.07-1.85,0.27-2.64c5.03,1.02,7.65,0.55,10.67,0l0.08-0.01   c0.21,0.78,0.27,2.12,0.27,2.65C59.96,52.96,59.97,54.23,58.87,54.55z"></path><path d="M57.57,44.11c0.83,0,1.51-0.64,1.51-1.43v-2.66c0-0.79-0.68-1.43-1.51-1.43h-6.61c-0.83,0-1.51,0.64-1.51,1.43v2.66   c0,0.79,0.68,1.43,1.51,1.43H57.57z M50.44,42.68v-2.66c0-0.24,0.24-0.44,0.52-0.44h6.61c0.29,0,0.52,0.2,0.52,0.44v2.66   c0,0.24-0.23,0.44-0.52,0.44h-6.61C50.67,43.12,50.44,42.93,50.44,42.68z"></path><path d="M63,31.09v-3.61c0-3.83-3.37-6.95-7.5-6.95h-2.4c-4.14,0-7.5,3.12-7.5,6.95v3.61l-2.67,2.27c-0.38,0.42-0.48,1-0.25,1.52   s0.72,0.84,1.29,0.84h1.63v18.43c0,2.98,2.61,5.4,5.82,5.4h5.76c3.21,0,5.82-2.42,5.82-5.4V35.72h1.63c0.57,0,1.06-0.32,1.29-0.84   c0.23-0.52,0.13-1.1-0.29-1.57L63,31.09z M61.55,25.29c-1.58-0.21-2.99-1.6-3.2-3.17C59.81,22.78,60.95,23.91,61.55,25.29z    M50.24,22.13c-0.21,1.57-1.62,2.96-3.2,3.17C47.64,23.91,48.79,22.78,50.24,22.13z M43.97,34.74c-0.26,0-0.36-0.19-0.39-0.25   c-0.03-0.06-0.1-0.27,0.03-0.42l1.99-1.68v2.35H43.97z M62.01,54.15c0,2.43-2.17,4.42-4.84,4.42h-5.76c-2.67,0-4.84-1.98-4.84-4.42   V27.48c0-0.4,0.04-0.79,0.13-1.16c2.39-0.04,4.54-2.19,4.56-4.56c0.58-0.16,1.19-0.24,1.83-0.24h2.4c0.63,0,1.25,0.09,1.83,0.24   c0.02,2.37,2.17,4.52,4.56,4.56c0.08,0.38,0.13,0.76,0.13,1.16V54.15z M65.01,34.48c-0.03,0.06-0.13,0.25-0.39,0.25H63v-2.36   l1.94,1.64C65.11,34.21,65.04,34.42,65.01,34.48z"></path><path d="M23.4,27.35c-6.26,0-11.35,5.09-11.35,11.34c0,6.26,5.09,11.35,11.35,11.35c6.25,0,11.34-5.09,11.34-11.35   C34.75,32.43,29.66,27.35,23.4,27.35z M23.4,49.05c-5.72,0-10.37-4.65-10.37-10.37c0-5.71,4.65-10.36,10.37-10.36   c5.71,0,10.36,4.65,10.36,10.36C33.76,44.4,29.11,49.05,23.4,49.05z"></path></g></svg>