<svg height='300px' width='300px'  fill="#000000" xmlns="http://www.w3.org/2000/svg" xmlns:xlink="http://www.w3.org/1999/xlink" version="1.1" x="0px" y="0px" viewBox="0 0 100 100" style="enable-background:new 0 0 100 100;" xml:space="preserve"><path d="M79.4,58.1l-7.6-20.8c-0.3-0.8-1-1.3-1.9-1.3H30c-0.8,0-1.6,0.5-1.9,1.3l-7.6,20.8C15.7,58.8,12,63,12,68v16  c0,1.1,0.9,2,2,2h4v1.5c0,4.1,3.4,7.5,7.5,7.5s7.5-3.4,7.5-7.5V86h9h16h9v1.5c0,4.1,3.4,7.5,7.5,7.5s7.5-3.4,7.5-7.5V86h4  c1.1,0,2-0.9,2-2V68C88,63,84.3,58.8,79.4,58.1z M31.4,40h37.2l6.5,18h-7.8l-9.4-9.4c-0.8-0.8-2-0.8-2.8,0c-0.8,0.8-0.8,2,0,2.8  l6.6,6.6H48.3l-9.4-9.4c-0.8-0.8-2-0.8-2.8,0c-0.8,0.8-0.8,2,0,2.8l6.6,6.6H24.9L31.4,40z M29,87.5c0,1.9-1.6,3.5-3.5,3.5  S22,89.4,22,87.5V86h7V87.5z M44,82v-6h12v6H44z M78,87.5c0,1.9-1.6,3.5-3.5,3.5S71,89.4,71,87.5V86h7V87.5z M84,82h-4H69h-9v-8  c0-1.1-0.9-2-2-2H42c-1.1,0-2,0.9-2,2v8h-9H20h-4V68c0-3.3,2.7-6,6-6h56c3.3,0,6,2.7,6,6V82z M28,66c-3.3,0-6,2.7-6,6s2.7,6,6,6  s6-2.7,6-6S31.3,66,28,66z M28,74c-1.1,0-2-0.9-2-2s0.9-2,2-2s2,0.9,2,2S29.1,74,28,74z M72,66c-3.3,0-6,2.7-6,6s2.7,6,6,6  s6-2.7,6-6S75.3,66,72,66z M72,74c-1.1,0-2-0.9-2-2s0.9-2,2-2s2,0.9,2,2S73.1,74,72,74z M8,7c0-1.1,0.9-2,2-2h80c1.1,0,2,0.9,2,2  s-0.9,2-2,2H10C8.9,9,8,8.1,8,7z M12,26c0,1.1-0.9,2-2,2s-2-0.9-2-2V15c0-1.1,0.9-2,2-2s2,0.9,2,2V26z M20,28v2c0,1.1-0.9,2-2,2  s-2-0.9-2-2v-2c0-1.1,0.9-2,2-2S20,26.9,20,28z M20,21c0,1.1-0.9,2-2,2s-2-0.9-2-2v-6c0-1.1,0.9-2,2-2s2,0.9,2,2V21z M26,13  c1.1,0,2,0.9,2,2v8c0,1.1-0.9,2-2,2s-2-0.9-2-2v-8C24,13.9,24.9,13,26,13z M34,13c1.1,0,2,0.9,2,2v11c0,1.1-0.9,2-2,2s-2-0.9-2-2V15  C32,13.9,32.9,13,34,13z M44,28v2c0,1.1-0.9,2-2,2s-2-0.9-2-2v-2c0-1.1,0.9-2,2-2S44,26.9,44,28z M44,21c0,1.1-0.9,2-2,2s-2-0.9-2-2  v-6c0-1.1,0.9-2,2-2s2,0.9,2,2V21z M50,13c1.1,0,2,0.9,2,2v8c0,1.1-0.9,2-2,2s-2-0.9-2-2v-8C48,13.9,48.9,13,50,13z M58,13  c1.1,0,2,0.9,2,2v11c0,1.1-0.9,2-2,2s-2-0.9-2-2V15C56,13.9,56.9,13,58,13z M68,28v2c0,1.1-0.9,2-2,2s-2-0.9-2-2v-2c0-1.1,0.9-2,2-2  S68,26.9,68,28z M68,21c0,1.1-0.9,2-2,2s-2-0.9-2-2v-6c0-1.1,0.9-2,2-2s2,0.9,2,2V21z M74,13c1.1,0,2,0.9,2,2v8c0,1.1-0.9,2-2,2  s-2-0.9-2-2v-8C72,13.9,72.9,13,74,13z M82,13c1.1,0,2,0.9,2,2v11c0,1.1-0.9,2-2,2s-2-0.9-2-2V15C80,13.9,80.9,13,82,13z M92,28v2  c0,1.1-0.9,2-2,2s-2-0.9-2-2v-2c0-1.1,0.9-2,2-2S92,26.9,92,28z M92,15v6c0,1.1-0.9,2-2,2s-2-0.9-2-2v-6c0-1.1,0.9-2,2-2  S92,13.9,92,15z"></path></svg>