<svg height='300px' width='300px'  fill="#000000" xmlns="http://www.w3.org/2000/svg" xmlns:xlink="http://www.w3.org/1999/xlink" version="1.1" x="0px" y="0px" viewBox="0 0 100 100" enable-background="new 0 0 100 100" xml:space="preserve"><g><path d="M20.098,14.996c-0.378-0.152-0.744-0.238-1.105-0.253c-0.359-0.013-0.213-0.023-0.809-0.023h-0.626v5.341h0.414   c0.618,0,1.126-0.038,1.524-0.115c0.399-0.074,0.737-0.226,1.008-0.451c0.231-0.201,0.4-0.444,0.504-0.719   c0.106-0.28,0.158-0.891,0.158-1.294c0-0.393-0.107-1.604-0.324-1.89C20.627,15.308,20.383,15.105,20.098,14.996z"></path><path d="M5,6.5v27h27v-27H5z M24.785,19.515c-0.225,0.604-0.537,1.107-0.947,1.52c-0.56,0.551-1.183,0.969-1.873,1.254   c-0.689,0.283-1.551,0.426-2.572,0.426h-1.835v5.447h-4.25V12.097h6.169c0.892,0,1.646,0.074,2.261,0.228   c0.614,0.156,1.156,0.389,1.629,0.695c0.567,0.373,1.001,0.847,1.296,1.425c0.301,0.583,0.451,2.148,0.451,2.959   C25.113,18.032,25.004,18.916,24.785,19.515z"></path></g><path d="M88,81.5h6v-9.885V71.5v-2.885c0-3.336-1.661-6.296-4.191-8.115H91.5c1.925,0,3.5-1.575,3.5-3.5s-1.575-3.5-3.5-3.5h-4.533  l-2.83-12.131C83.512,38.691,80.75,36.5,78,36.5H42c-2.75,0-5.441,2.206-5.98,4.903L33.6,53.5h-4.1c-1.925,0-3.5,1.575-3.5,3.5  s1.575,3.5,3.5,3.5h1.691C28.661,62.319,27,65.279,27,68.615V71.5v0.115V81.5h6v7H21v-50h-5v50H5v5h90v-5h-7V81.5z M42.738,43.5  h34.707l2.8,12H40.339L42.738,43.5z M38,75.5c-2.761,0-5-2.239-5-5s2.239-5,5-5c2.762,0,5,2.239,5,5S40.762,75.5,38,75.5z M78,88.5  H43v-6.885h35V88.5z M83,75.5c-2.761,0-5-2.239-5-5s2.239-5,5-5c2.762,0,5,2.239,5,5S85.762,75.5,83,75.5z"></path></svg>