<svg height='300px' width='300px'  fill="#000000" xmlns="http://www.w3.org/2000/svg" xmlns:xlink="http://www.w3.org/1999/xlink" version="1.1" x="0px" y="0px" viewBox="0 0 68 68" enable-background="new 0 0 68 68" xml:space="preserve"><g><path d="M63.1,5.4h-4V4c0-1.7-1.3-3-3-3H11.9c-1.7,0-3,1.3-3,3v6.6h-4c-0.6,0-1,0.4-1,1s0.4,1,1,1h4v9.2h-4c-0.6,0-1,0.4-1,1   s0.4,1,1,1h4V33h-4c-0.6,0-1,0.4-1,1s0.4,1,1,1h4v9.2h-4c-0.6,0-1,0.4-1,1s0.4,1,1,1h4v9.2h-4c-0.6,0-1,0.4-1,1s0.4,1,1,1h4V64   c0,1.7,1.3,3,3,3h44.2c1.7,0,3-1.3,3-3v-1.4h4c0.6,0,1-0.4,1-1V51.4c0-0.6-0.4-1-1-1h-4v-2.8h4c0.6,0,1-0.4,1-1V36.4   c0-0.6-0.4-1-1-1h-4v-2.8h4c0.6,0,1-0.4,1-1V21.4c0-0.6-0.4-1-1-1h-4v-2.8h4c0.6,0,1-0.4,1-1V6.4C64.1,5.9,63.7,5.4,63.1,5.4z    M57.1,64c0,0.6-0.4,1-1,1H11.9c-0.6,0-1-0.4-1-1v-6.6h1.8c0.4,1.2,1.6,2.1,2.9,2.1c1.7,0,3.1-1.4,3.1-3.1c0-1.7-1.4-3.1-3.1-3.1   c-1.4,0-2.5,0.9-2.9,2.1h-1.8v-9.2h1.8c0.4,1.2,1.6,2.1,2.9,2.1c1.7,0,3.1-1.4,3.1-3.1s-1.4-3.1-3.1-3.1c-1.4,0-2.5,0.9-2.9,2.1   h-1.8V35h1.8c0.4,1.2,1.6,2.1,2.9,2.1c1.7,0,3.1-1.4,3.1-3.1c0-1.7-1.4-3.1-3.1-3.1c-1.4,0-2.5,0.9-2.9,2.1h-1.8v-9.2h1.8   c0.4,1.2,1.6,2.1,2.9,2.1c1.7,0,3.1-1.4,3.1-3.1c0-1.7-1.4-3.1-3.1-3.1c-1.4,0-2.5,0.9-2.9,2.1h-1.8v-9.2h1.8   c0.4,1.2,1.6,2.1,2.9,2.1c1.7,0,3.1-1.4,3.1-3.1s-1.4-3.1-3.1-3.1c-1.4,0-2.5,0.9-2.9,2.1h-1.8V4c0-0.6,0.4-1,1-1h44.2   c0.6,0,1,0.4,1,1V64z M14.5,56.4c0-0.6,0.5-1.1,1.1-1.1c0.6,0,1.1,0.5,1.1,1.1s-0.5,1.1-1.1,1.1C15,57.5,14.5,57,14.5,56.4   C14.5,56.4,14.5,56.4,14.5,56.4C14.5,56.4,14.5,56.4,14.5,56.4z M14.5,45.2c0-0.6,0.5-1.1,1.1-1.1c0.6,0,1.1,0.5,1.1,1.1   s-0.5,1.1-1.1,1.1C15,46.3,14.5,45.8,14.5,45.2C14.5,45.2,14.5,45.2,14.5,45.2C14.5,45.2,14.5,45.2,14.5,45.2z M14.5,34   c0-0.6,0.5-1.1,1.1-1.1c0.6,0,1.1,0.5,1.1,1.1s-0.5,1.1-1.1,1.1C15,35.1,14.5,34.6,14.5,34C14.5,34,14.5,34,14.5,34   C14.5,34,14.5,34,14.5,34z M14.5,22.8c0-0.6,0.5-1.1,1.1-1.1c0.6,0,1.1,0.5,1.1,1.1s-0.5,1.1-1.1,1.1C15,23.9,14.5,23.4,14.5,22.8   C14.5,22.8,14.5,22.8,14.5,22.8C14.5,22.8,14.5,22.8,14.5,22.8z M14.5,11.6c0-0.6,0.5-1.1,1.1-1.1c0.6,0,1.1,0.5,1.1,1.1   s-0.5,1.1-1.1,1.1C15,12.7,14.5,12.2,14.5,11.6C14.5,11.6,14.5,11.6,14.5,11.6C14.5,11.6,14.5,11.6,14.5,11.6z M59.1,52.4h3v8.2h-3   V52.4z M59.1,37.4h3v8.2h-3V37.4z M59.1,22.4h3v8.2h-3V22.4z M62.1,15.6h-3V7.4h3V15.6z"></path><path d="M46.4,38H42v-0.1c2.5-1.7,4.2-4.9,4.3-7.9c3.2-8.8-1.3-13.2-1.6-13.5c-1.8-1.4-3.9-2.1-6.3-2.1c-2.7,0-4.9,0.9-5.4,1.1   c-1.6,0.4-2.7,1.3-3.5,2.7c-2.3,4-0.4,10.8-0.1,11.8c0.1,3,1.7,6.1,4.3,7.8V38h-4.3c-3.4,0-6.2,2.8-6.2,6.2v8.3c0,0.6,0.4,1,1,1   h27.6c0.6,0,1-0.4,1-1v-8.3C52.7,40.8,49.9,38,46.4,38z M30.4,23.5c0-1.6,0.2-3.1,0.8-4.2c0.5-0.9,1.3-1.5,2.4-1.8   c0.1,0,0.1,0,0.2-0.1c0,0,2.1-0.9,4.6-0.9c2,0,3.7,0.6,5,1.6c0.1,0.1,1.6,1.6,2,4.7c-0.3-0.7-0.7-1.4-1.2-1.9   c-0.7-0.7-1.5-1.1-2.5-1.1c-0.5,0-1.1,0.1-1.8,0.4c-1.7,0.8-6.5,3.1-8.4,2.9C31.1,23,30.7,23.1,30.4,23.5z M31.4,29.9   C31.4,29.9,31.4,29.9,31.4,29.9c0.1-2.9,0.3-4.2,0.5-4.8c2.9-0.1,8.3-2.8,8.9-3.1c0.9-0.3,1.5-0.3,2,0.3c1.5,1.6,1.6,6,1.5,7.6   c0,0,0,0,0,0c0,0,0,0,0,0c0,3.4-2.8,7.4-6.4,7.4S31.4,33.3,31.4,29.9z M40,38.9L40,38.9c0,3-4.3,3-4.3,0.1v-0.1   c0.7,0.2,1.4,0.4,2.2,0.4C38.6,39.3,39.3,39.1,40,38.9z M50.7,51.5H25.1v-7.3c0-2.3,1.9-4.2,4.2-4.2h4.5c1,4.2,7,4.2,8.1,0h4.6   c2.3,0,4.2,1.9,4.2,4.2V51.5z"></path></g></svg>