<svg height='300px' width='300px'  fill="#000000" xmlns="http://www.w3.org/2000/svg" xmlns:xlink="http://www.w3.org/1999/xlink" version="1.1" x="0px" y="0px" viewBox="-247 370.9 100 100" style="enable-background:new -247 370.9 100 100;" xml:space="preserve"><path d="M-214.4,409.3c0,0.6,0.4,2.3,2.5,3.9c-0.2,0.9-0.3,1.9-0.3,2.8c0,8.2,6.8,14.8,15.1,14.8  c8.3,0,15.1-6.7,15.1-14.8c0-1-0.1-1.9-0.3-2.9c2.2-1.6,2.5-3.4,2.6-4v-2.7l4.7-6.3v-0.7c0-6.7-9.7-11.9-22.1-11.9  s-22.1,5.2-22.1,11.9v0.7l4.7,6.3L-214.4,409.3z M-197,426.4c-5.8,0-10.6-4.7-10.6-10.4c0-0.3,0.1-0.5,0.1-0.8  c2.5,0.7,5.9,1.2,10.5,1.2s8-0.5,10.5-1.3c0,0.3,0.1,0.5,0.1,0.8C-186.4,421.7-191.2,426.4-197,426.4z M-187.8,410.9  c-1.9,0.6-4.8,1-9.2,1s-7.3-0.5-9.2-1c-3-0.9-3.6-2-3.7-1.9v-0.8v-0.3h0.2h6.1h13.1h6.1h0.2v0.4v0.4  C-184.1,408.7-184.6,410-187.8,410.9z M-197,392c9.4,0,16.6,3.5,17.4,6.8l-3.4,4.7h-6h-16h-6l-3.5-4.7  C-213.6,395.5-206.4,392-197,392z"></path><ellipse cx="-197" cy="397.6" rx="2.5" ry="2.4"></ellipse><path d="M-242,375.9v90h90v-90H-242z M-202.9,460.6h-17.3c0.1-0.7,0.1-1.5,0.2-2.2c0.1-0.3,0.2-0.5,0.2-0.7  c0.3-1.2,0.6-2.5,1.1-3.6c0-0.1,0.1-0.1,0.1-0.2c0.9-1.9,2.1-3.7,3.5-5.4l0,0l12.2,11.9C-202.9,460.4-202.9,460.5-202.9,460.6z   M-197,456.7c-0.9,0-1.8,0.2-2.6,0.6l-12.2-12l0,0c1.7-1.4,3.5-2.5,5.5-3.4c0.1,0,0.2-0.1,0.2-0.1c1.2-0.5,2.4-0.8,3.7-1.1  c0.3-0.1,0.5-0.2,0.8-0.2c1.5-0.3,3.1-0.5,4.7-0.5c1.6,0,3.2,0.2,4.7,0.5c0.3,0.1,0.6,0.2,0.9,0.3c1.2,0.3,2.4,0.6,3.5,1.1  c0.2,0.1,0.4,0.2,0.5,0.3c1.9,0.8,3.6,1.9,5.2,3.2l0,0l-12.2,12C-195.2,456.9-196.1,456.7-197,456.7z M-191.1,460.6  c0-0.1,0-0.1-0.1-0.2l12.2-12l0,0c1.3,1.6,2.5,3.3,3.3,5.1c0.1,0.2,0.2,0.3,0.3,0.5c0.5,1.1,0.8,2.3,1.1,3.4  c0.1,0.3,0.2,0.6,0.3,0.9c0.1,0.7,0.1,1.5,0.2,2.2h-17.3V460.6z M-157.2,460.6h-11.9c0-0.1,0-0.3,0-0.4s0-0.3-0.1-0.4  c-0.1-0.8-0.2-1.6-0.4-2.3v-0.1c-2.3-10.6-10.8-19-21.7-21.3h-0.1c-0.8-0.2-1.6-0.3-2.4-0.4c-0.1,0-0.3,0-0.4-0.1  c-0.9-0.1-1.9-0.1-2.8-0.1c-1,0-1.9,0-2.8,0.1c-0.1,0-0.2,0-0.4,0.1c-0.8,0.1-1.6,0.2-2.4,0.4l0,0c-10.9,2.2-19.6,10.7-21.8,21.4  l0,0c-0.2,0.8-0.3,1.6-0.4,2.4c0,0.1,0,0.2-0.1,0.4c0,0.1,0,0.3,0,0.4h-11.9v-79.5h79.5v79.4H-157.2z"></path></svg>