<svg height='300px' width='300px'  fill="#000000" xmlns="http://www.w3.org/2000/svg" xmlns:xlink="http://www.w3.org/1999/xlink" version="1.0" x="0px" y="0px" viewBox="0 0 100 100" enable-background="new 0 0 100 100" xml:space="preserve"><path d="M83.3835297,39.6034889c-0.1770782-0.1309357-0.373558-0.2390633-0.5774612-0.3274155L52.4472427,26.3713627V23.582468  c0-1.6334343-1.3254166-2.9583969-2.9584732-2.9583969c-2.6081734,0-4.7267838-2.1226234-4.7267838-4.7307978  c0-2.6077967,2.1186104-4.7264032,4.7267838-4.7264032c2.6077957,0,4.7264023,2.1186066,4.7264023,4.7264032h5.9169464  c0-5.8703451-4.772625-10.6432734-10.6433487-10.6432734s-10.6437263,4.7729282-10.6437263,10.6432734  c0,4.845973,3.2515602,8.9447508,7.6852531,10.2275839v0.2505054L16.1676102,39.2760735  c-0.207921,0.0883522-0.4008379,0.1964798-0.5818596,0.3274155c-2.8428431,2.0606384-4.4759741,5.0885201-4.4759741,8.3014374  c0,5.9168701,5.4352579,10.7320061,12.1150827,10.7320061h3.6286087v36.4989929h44.8698425V58.6369324h4.0293655  c6.679451,0,12.1150818-4.815136,12.1150818-10.7320061C87.8677597,44.6880684,86.2343292,41.6641273,83.3835297,39.6034889z   M75.7526779,52.7200623h-4.0293655v-4.3840637H26.8534679v4.3840637h-3.6286087  c-3.4168205,0-6.1981373-2.1612701-6.1981373-4.815136c0-1.5948639,1.0322533-2.7159233,1.791193-3.3284683l30.6708546-13.0357246  l30.6669159,13.0396614c0.7624969,0.6086082,1.7952042,1.7296677,1.7952042,3.3245316  C81.9508896,50.5587921,79.1695023,52.7200623,75.7526779,52.7200623z"></path></svg>