<svg height='300px' width='300px'  fill="#000000" xmlns="http://www.w3.org/2000/svg" xmlns:xlink="http://www.w3.org/1999/xlink" version="1.1" x="0px" y="0px" viewBox="0 0 100 100" enable-background="new 0 0 100 100" xml:space="preserve"><path d="M37.642,38.905c-3.003,0-5.443,2.443-5.443,5.445c0,3.004,2.44,5.453,5.443,5.453c3,0,5.45-2.448,5.45-5.453  C43.093,41.348,40.643,38.905,37.642,38.905z"></path><path d="M61.947,23.924c-3.387,0-6.143,2.755-6.143,6.143c0,3.389,2.756,6.15,6.143,6.15c3.386,0,6.149-2.76,6.149-6.15  C68.099,26.679,65.333,23.924,61.947,23.924z"></path><path d="M87.521,35.572c-3.391,0-6.143,2.756-6.143,6.144c0,3.387,2.754,6.149,6.143,6.149c3.383,0,6.147-2.761,6.147-6.149  C93.67,38.329,90.903,35.572,87.521,35.572z"></path><path d="M81.325,93.899h12.802V72.401h4.797l-0.009-17.35c0-3.039-2.457-5.5-5.486-5.5H81.985c-3.029,0-5.489,2.46-5.489,5.5  l-0.016,17.35h4.845V93.899z"></path><path d="M55.792,93.899h12.803V64.893h4.791l-0.011-21.364c0-3.037-2.456-5.498-5.486-5.498H56.444c-3.03,0-5.487,2.46-5.487,5.498  l-0.012,21.364h4.846V93.899L55.792,93.899z"></path><path d="M31.99,72.474v21.426h11.348V72.474h4.249l0-16.199c0-2.691-2.182-4.874-4.875-4.874H32.549  c-2.692,0-4.875,2.183-4.875,4.874l0.022,16.199H31.99z"></path><polygon points="24.357,19.348 24.357,7.477 12.485,7.477 12.485,19.348 0.614,19.348 0.614,31.22 12.485,31.22 12.485,43.092   24.357,43.092 24.357,31.22 36.229,31.22 36.229,19.348 "></polygon></svg>