<svg height='300px' width='300px'  fill="#000000" xmlns="http://www.w3.org/2000/svg" xmlns:xlink="http://www.w3.org/1999/xlink" version="1.1" x="0px" y="0px" viewBox="0 0 91 91" enable-background="new 0 0 91 91" xml:space="preserve"><g><path d="M37.453,44.785h5.756v5.754c0,1.389,1.125,2.514,2.512,2.514c1.389,0,2.514-1.125,2.514-2.514v-5.754h5.752   c1.387,0,2.512-1.125,2.512-2.512c0-1.389-1.125-2.514-2.512-2.514h-5.752v-5.75c0-1.387-1.125-2.512-2.514-2.512   c-1.387,0-2.512,1.125-2.512,2.512v5.75h-5.756c-1.387,0-2.512,1.125-2.512,2.514C34.941,43.66,36.066,44.785,37.453,44.785z"></path><path d="M88.344,19.042H65.186V7.841c0-1.389-1.125-2.514-2.514-2.514H28.775c-1.389,0-2.514,1.125-2.514,2.514v11.201H3.092   c-1.389,0-2.514,1.125-2.514,2.514V83.74c0,1.387,1.125,2.512,2.514,2.512h77.242c5.801,0,10.521-4.721,10.521-10.523V21.556   C90.855,20.167,89.73,19.042,88.344,19.042z M31.287,10.353H60.16v8.689H31.287V10.353z M28.775,24.068h33.896H85.83V40.63   c-0.133,0.045-0.266,0.092-0.395,0.16L45.721,61.666L6.002,40.791c-0.129-0.068-0.264-0.117-0.398-0.16V24.068H28.775z    M80.334,81.227H5.604V46.26l38.949,20.469c0.365,0.193,0.768,0.289,1.168,0.289c0.402,0,0.803-0.096,1.17-0.289L85.83,46.26   v29.469C85.83,78.762,83.365,81.227,80.334,81.227z"></path></g></svg>