<svg height='300px' width='300px'  fill="#000000" xmlns:dc="http://purl.org/dc/elements/1.1/" xmlns:cc="http://creativecommons.org/ns#" xmlns:rdf="http://www.w3.org/1999/02/22-rdf-syntax-ns#" xmlns:svg="http://www.w3.org/2000/svg" xmlns="http://www.w3.org/2000/svg" xmlns:sodipodi="http://sodipodi.sourceforge.net/DTD/sodipodi-0.dtd" xmlns:inkscape="http://www.inkscape.org/namespaces/inkscape" viewBox="0 0 12.7 12.7" version="1.1" x="0px" y="0px"><g transform="translate(0,-284.29999)"><path style="color:#000000;font-style:normal;font-variant:normal;font-weight:normal;font-stretch:normal;font-size:medium;line-height:normal;font-family:sans-serif;font-variant-ligatures:normal;font-variant-position:normal;font-variant-caps:normal;font-variant-numeric:normal;font-variant-alternates:normal;font-feature-settings:normal;text-indent:0;text-align:start;text-decoration:none;text-decoration-line:none;text-decoration-style:solid;text-decoration-color:#000000;letter-spacing:normal;word-spacing:normal;text-transform:none;writing-mode:lr-tb;direction:ltr;text-orientation:mixed;dominant-baseline:auto;baseline-shift:baseline;text-anchor:start;white-space:normal;shape-padding:0;clip-rule:nonzero;display:inline;overflow:visible;visibility:visible;opacity:1;isolation:auto;mix-blend-mode:normal;color-interpolation:sRGB;color-interpolation-filters:linearRGB;solid-color:#000000;solid-opacity:1;vector-effect:none;fill:#000000;fill-opacity:1;fill-rule:evenodd;stroke:none;stroke-width:1.99999988;stroke-linecap:round;stroke-linejoin:round;stroke-miterlimit:4;stroke-dasharray:none;stroke-dashoffset:0;stroke-opacity:1;paint-order:stroke fill markers;color-rendering:auto;image-rendering:auto;shape-rendering:auto;text-rendering:auto;enable-background:accumulate" d="M 6,3 C 4.3552936,3 3,4.3553008 3,6 l -0.00391,26.003906 c 0,1.334635 2.0019531,1.334635 2.0019531,0 L 5,6 C 5,5.4287622 5.4287656,5 6,5 h 28 c 0.571235,0 1,0.4287622 1,1 v 18 c -0.01912,1.352313 2.019116,1.352313 2,0 V 6 C 37,4.3553008 35.644707,3 34,3 Z m 6,8 c -0.552285,0 -1,0.447715 -1,1 0,0.552285 0.447715,1 1,1 0.552285,0 1,-0.447715 1,-1 0,-0.552285 -0.447715,-1 -1,-1 z m 3.900391,0.002 c -1.303147,0.09093 -1.210169,2.033912 0.0957,2 H 28 c 1.304853,-0.02818 1.304853,-1.971824 0,-2 H 15.996094 c -0.03188,-0.0015 -0.06382,-0.0015 -0.0957,0 z M 12,17 c -0.552285,0 -1,0.447715 -1,1 0,0.552285 0.447715,1 1,1 0.552285,0 1,-0.447715 1,-1 0,-0.552285 -0.447715,-1 -1,-1 z m 16.109375,0 c -0.0365,-6.95e-4 -0.07302,6.15e-4 -0.109375,0.0039 H 15.996094 c -0.03188,-0.0015 -0.06382,-0.0015 -0.0957,0 -1.226838,0.15243 -1.140094,1.958061 0.0957,1.992188 H 28 C 29.373343,19.117384 29.487748,17.029495 28.109375,17 Z m -12.113281,5.998047 c -1.304853,0.02818 -1.304853,1.971824 0,2 H 28 c 1.362434,0.02942 1.362434,-2.029419 0,-2 z M 12,23 c -0.552285,0 -1,0.447715 -1,1 0,0.552285 0.447715,1 1,1 0.552285,0 1,-0.447715 1,-1 0,-0.552285 -0.447715,-1 -1,-1 z m 0,6 c -0.552285,0 -1,0.447715 -1,1 0,0.552285 0.447715,1 1,1 0.552285,0 1,-0.447715 1,-1 0,-0.552285 -0.447715,-1 -1,-1 z m 3.996094,0 c -1.362434,-0.02942 -1.362434,2.029419 0,2 h 10.001953 c 1.362434,0.02942 1.362434,-2.029419 0,-2 z M 12,35 c -0.552285,0 -1,0.447715 -1,1 0,0.552285 0.447715,1 1,1 0.552285,0 1,-0.447715 1,-1 0,-0.552285 -0.447715,-1 -1,-1 z m 3.900391,0 c -1.334635,0.0638 -1.238929,2.065755 0.0957,2.001953 h 8.001953 c 1.334635,0 1.334635,-2.001953 0,-2.001953 h -8.001953 c -0.03188,-0.0015 -0.06382,-0.0015 -0.0957,0 z M 3.9863281,35.982422 c -0.5561461,0.0054 -1.0010662,0.463464 -0.9902343,1.019531 L 3,42 c 0,1.644699 1.355294,3 3,3 h 20 c 1.352313,0.01912 1.352313,-2.019116 0,-2 H 6 C 5.4287652,43 5,42.571238 5,42 l -0.00195,-4.998047 c 0.011009,-0.5645 -0.4471504,-1.026198 -1.0117188,-1.019531 z" transform="matrix(0.26458333,0,0,0.26458333,0,284.29999)"></path><path style="color:#000000;font-style:normal;font-variant:normal;font-weight:normal;font-stretch:normal;font-size:medium;line-height:normal;font-family:sans-serif;font-variant-ligatures:normal;font-variant-position:normal;font-variant-caps:normal;font-variant-numeric:normal;font-variant-alternates:normal;font-feature-settings:normal;text-indent:0;text-align:start;text-decoration:none;text-decoration-line:none;text-decoration-style:solid;text-decoration-color:#000000;letter-spacing:normal;word-spacing:normal;text-transform:none;writing-mode:lr-tb;direction:ltr;text-orientation:mixed;dominant-baseline:auto;baseline-shift:baseline;text-anchor:start;white-space:normal;shape-padding:0;clip-rule:nonzero;display:inline;overflow:visible;visibility:visible;opacity:1;isolation:auto;mix-blend-mode:normal;color-interpolation:sRGB;color-interpolation-filters:linearRGB;solid-color:#000000;solid-opacity:1;vector-effect:none;fill:#000000;fill-opacity:1;fill-rule:evenodd;stroke:none;stroke-width:1.99999988;stroke-linecap:round;stroke-linejoin:round;stroke-miterlimit:4;stroke-dasharray:none;stroke-dashoffset:0;stroke-opacity:1;paint-order:stroke fill markers;color-rendering:auto;image-rendering:auto;shape-rendering:auto;text-rendering:auto;enable-background:accumulate" d="M 36.001953 26.998047 C 31.043235 26.998047 27.003907 31.039307 27.003906 35.998047 C 27.003906 40.956749 31.043235 45.003906 36.001953 45.003906 C 40.960672 45.003906 45 40.956749 45 35.998047 C 45 31.039307 40.960672 26.998047 36.001953 26.998047 z M 36.001953 29 C 39.879791 29 43 32.120214 43 35.998047 C 43 39.87588 39.879791 43.001953 36.001953 43.001953 C 32.124115 43.001953 29.003906 39.87588 29.003906 35.998047 C 29.003906 32.120214 32.124115 29 36.001953 29 z M 39.160156 32.875 A 1.0001001 1.0001001 0 0 0 38.474609 33.177734 L 34.939453 36.712891 L 33.529297 35.296875 A 1.0021986 1.0021986 0 1 0 32.111328 36.712891 L 34.230469 38.832031 A 1.0001001 1.0001001 0 0 0 35.646484 38.832031 L 39.892578 34.59375 A 1.0001001 1.0001001 0 0 0 39.160156 32.875 z " transform="matrix(0.26458333,0,0,0.26458333,0,284.29999)"></path></g></svg>