<svg height='300px' width='300px'  fill="#000000" xmlns="http://www.w3.org/2000/svg" xmlns:xlink="http://www.w3.org/1999/xlink" version="1.1" x="0px" y="0px" viewBox="0 0 100 100" enable-background="new 0 0 100 100" xml:space="preserve"><ellipse cx="65.473" cy="13.785" rx="5.986" ry="6.033"></ellipse><polygon points="55.709,71.456 59.348,71.459 61.685,93.229 65.434,93.333 65.504,71.459 67.099,71.459 67.05,93.229 70.49,93.229   73.127,71.459 76.974,71.439 72.946,36.155 74.306,36.155 76.602,56.447 80.578,52.962 76.249,22.372 54.872,22.348 51.579,53.185   55.509,56.276 57.034,36.185 58.356,36.22 "></polygon><ellipse cx="33.381" cy="12.875" rx="5.562" ry="5.605"></ellipse><path d="M60.368,88.525l-0.306-2.85H13.962V43.895h37.796l0.41-3.838h-5.8l-2.448-19.604L22.996,20.43l-1.791,19.626H7.912v3.838  h3.2v44.631H60.368z M42.206,34.676l0.56,5.38h-1.285l-0.477-5.38H42.206z M24.903,34.702l1.168,0.03l-0.273,5.324h-1.249  L24.903,34.702z"></path><polygon points="92.088,40.056 79.567,40.056 79.662,40.723 79.662,40.723 80.065,43.573 80.065,43.573 80.11,43.895 85.648,43.895   85.648,85.675 72.218,85.675 71.873,88.525 88.498,88.525 88.498,43.895 92.088,43.895 "></polygon><path d="M33.78,52.652c-6.419,0-11.622,5.203-11.622,11.622c0,6.419,5.204,11.622,11.622,11.622c6.419,0,11.622-5.203,11.622-11.622  C45.403,57.855,40.199,52.652,33.78,52.652z M35.508,71.387h-3.5V61.244h3.5V71.387z M33.771,60.259  c-1.235,0-1.853-0.513-1.853-1.54c0-0.525,0.146-0.916,0.439-1.173c0.292-0.257,0.764-0.385,1.414-0.385  c0.65,0,1.125,0.131,1.423,0.394c0.299,0.263,0.448,0.651,0.448,1.164C35.642,59.746,35.019,60.259,33.771,60.259z"></path></svg>