<svg height='300px' width='300px'  fill="#000000" xmlns="http://www.w3.org/2000/svg" xmlns:xlink="http://www.w3.org/1999/xlink" version="1.1" x="0px" y="0px" viewBox="0 0 1024 1024" style="enable-background:new 0 0 1024 1024;" xml:space="preserve"><g><path d="M160.86,742.14c7.74-12.92,17.83-24.51,29.98-34.2c8.93-7.12,18.81-13.01,29.35-17.52l47.73-20.4v35.75   c0,20.05-16.31,36.37-36.37,36.37H160.86z"></path><path d="M412.84,618.96l-2.34-9.88l14.06-6.01c4.63-1.98,9.95-0.97,13.55,2.57l63.55,62.9l-8.59,5.57l-8.59,5.57l-49.67,32.23   l-19.64-83.08L412.84,618.96z"></path><path d="M531.12,674.23l-8.6-5.58l64.78-63.06c3.56-3.51,8.89-4.51,13.53-2.5l13.9,5.97l-2.42,9.85l-2.43,9.83l-20.5,83.28   l-49.65-32.21L531.12,674.23z"></path><path d="M881.13,807.39v135.42H746.04v-74.81h-30v74.81H526.57v-32.63h-30v32.63h-188.6v-74.81h-30v74.81h-135.1V807.54   c0-12.16,1.7-24.05,4.96-35.4h83.72c36.6,0,66.37-29.77,66.37-66.37V657.2l84.58-36.15l2.33,9.88l2.34,9.87l22.75,96.25   c1.26,5.31,5.03,9.7,10.09,11.73c5.07,2.03,10.82,1.47,15.4-1.5l61.16-39.68v149.69h30V707.04l62.05,40.25   c2.75,1.79,5.94,2.71,9.15,2.71c2.08,0,4.18-0.39,6.16-1.18c5.05-1.99,8.83-6.32,10.14-11.6l23.75-96.48h0.01l2.42-9.83l2.42-9.85   l83.6,35.9v48.81c0,36.6,29.77,66.37,66.37,66.37h83.51C879.42,783.49,881.13,795.35,881.13,807.39z"></path><path d="M756.27,705.77v-35.93l47.75,20.51c10.49,4.51,20.32,10.39,29.2,17.49c1.48,1.17,3.05,2.47,4.61,3.85   c10.08,8.86,18.59,19.15,25.32,30.45h-70.51C772.58,742.14,756.27,725.83,756.27,705.77z"></path><path d="M666.89,352.82l-44.24,26.54c-33.4,20.04-71.64,30.63-110.59,30.63s-77.19-10.59-110.59-30.63l-42.36-25.41l-20-12v35.38   c0,39,10.42,77.39,30.13,111.01c10.75,18.34,24.03,34.94,39.46,49.35c0.19,0.19,0.39,0.38,0.59,0.56c0.56,0.51,1.13,1.03,1.71,1.56   c4.53,4.12,9.22,8.04,13.93,11.64c1.72,1.33,3.3,2.5,4.76,3.55c6.91,5.02,14.21,9.7,21.69,13.9c18.78,10.5,40.08,16.06,61.62,16.06   c21.53,0,42.83-5.56,61.6-16.06c5.6-3.12,11.25-6.63,16.83-10.44c3.42-2.36,6.78-4.8,9.97-7.27c1.27-0.98,2.54-1.98,3.77-2.99   c0.22-0.17,0.44-0.34,0.65-0.52l0.15-0.12c0.09-0.07,0.25-0.2,0.34-0.27c0.25-0.21,0.5-0.42,0.76-0.63   c0.03-0.03,0.06-0.05,0.1-0.08c14.81-12.23,27.98-26.39,39.13-42.09c15.3-21.52,26.49-45.37,33.25-70.88   c4.87-18.34,7.34-37.27,7.34-56.28v-36.51L666.89,352.82z M515.89,534.47c-8.74,0-16.66-1.41-23.36-3.32   c-20.03-5.7-33.02-16.72-34.43-17.96l9.88-11.29l9.81-11.34c0.09,0.08,9.73,8.22,23.9,12c17.72,4.72,34.74,0.59,50.6-12.3   l18.92,23.29C551.57,529.51,532.28,534.47,515.89,534.47z"></path><path d="M334.08,275.41h355.96v18.36c0,6.31-3.31,12.15-8.72,15.39l-4.72,2.83l-9.71,5.83l-59.67,35.81   c-28.75,17.24-61.64,26.35-95.16,26.35c-0.9,0-1.8-0.01-2.7-0.03c-0.28,0-0.55,0-0.83-0.01h-0.01c-0.78-0.01-1.56-0.03-2.34-0.06   c-0.3-0.01-0.6-0.02-0.89-0.03c-0.88-0.03-1.76-0.07-2.64-0.11c-2.08-0.11-4.17-0.25-6.24-0.42c-2.08-0.18-4.15-0.39-6.22-0.64   c-4.13-0.49-8.25-1.12-12.33-1.89c-2.04-0.39-4.08-0.81-6.1-1.26c-1.02-0.22-2.03-0.46-3.04-0.7c-2.02-0.49-4.03-1.01-6.03-1.56   c-2-0.55-3.99-1.14-5.97-1.76c-0.99-0.31-1.98-0.63-2.97-0.96c-1.97-0.65-3.93-1.34-5.88-2.06c-1.48-0.55-2.95-1.11-4.41-1.71   c-0.53-0.2-1.06-0.41-1.58-0.63c-1.1-0.45-2.19-0.91-3.27-1.38c-0.75-0.32-1.5-0.65-2.24-0.98c-0.14-0.06-0.27-0.12-0.4-0.18   c-0.83-0.38-1.66-0.76-2.48-1.15c-0.93-0.43-1.86-0.88-2.78-1.33c-0.83-0.41-1.66-0.82-2.49-1.24c-0.12-0.05-0.24-0.11-0.35-0.18   c-0.93-0.47-1.85-0.96-2.78-1.45c-0.92-0.49-1.84-0.99-2.75-1.49c-0.92-0.51-1.83-1.02-2.73-1.55c-0.91-0.52-1.81-1.05-2.71-1.59   l-57.79-34.68l-10-6v-0.96h-1.6l-4.72-2.83c-5.4-3.24-8.71-9.08-8.71-15.39V275.41z"></path><path d="M728.75,211.41l-14.77,34H310.14l-14.77-34c-4.3-9.88-3.68-20.9,1.69-30.24c5.36-9.34,14.57-15.42,25.26-16.69   c55.99-6.64,108.77-28.87,152.64-64.28l4.91-3.96c18.65-15.06,45.72-15.06,64.37,0l4.92,3.96c43.87,35.41,96.65,57.64,152.63,64.28   c10.7,1.27,19.91,7.35,25.27,16.69C732.43,190.51,733.04,201.53,728.75,211.41z"></path></g></svg>