<svg height='300px' width='300px'  fill="#000000" xmlns:rdf="http://www.w3.org/1999/02/22-rdf-syntax-ns#" xmlns="http://www.w3.org/2000/svg" xmlns:cc="http://creativecommons.org/ns#" xmlns:dc="http://purl.org/dc/elements/1.1/" version="1.1" x="0px" y="0px" viewBox="0 0 100 100"><g transform="translate(0,-952.36218)"><path style="baseline-shift:baseline;block-progression:tb;color:#000000;direction:ltr;text-indent:0;enable-background:accumulate;text-transform:none;" fill="#000000" d="m59.75,961.57c-0.72603,0-1.3125,0.54962-1.3125,1.2812v10.188h2.5938v-10.188c0-0.73163-0.55522-1.2812-1.2812-1.2812zm-46.562,13.688c-1.5678,0-2.7812,1.1827-2.7812,2.75v27.156l8.5,0.062h4.1562c0.09387,0,0.19146,0.012,0.28125,0.031l4.0625,0.031,3.9062-4.375a1.1001,1.1001,0,0,1,0.8125,-0.3437l19.625-0.062a1.1001,1.1001,0,0,1,1.0938,1.0937l0.1875,27.844h32.312v-25.219-12.062-14.156c0-1.5673-1.2135-2.75-2.7812-2.75h-20.281-5.0625-44.031zm47.969,5.2188,15.688,0c0.75098,0,1.4062,0.62402,1.4062,1.375v6.4062c0,0.75099-0.65527,1.375-1.4062,1.375h-15.688c-0.75098,0-1.4062-0.62401-1.4062-1.375v-6.4062c0-0.75098,0.65527-1.375,1.4062-1.375zm0.78125,2.1875,0,4.7812,14.094,0,0-4.7812-14.094,0zm25.625,10.375,0,10.281,2.5625,0,0-10.281-2.5625,0zm-17.75,9c5.558,0,10.125,4.5059,10.125,10.063,0,5.5565-4.567,10.125-10.125,10.125s-10.062-4.5685-10.062-10.125c0-5.5567,4.5045-10.063,10.062-10.063zm0,2.1875c-4.3689,0-7.875,3.5072-7.875,7.8751,0,4.3677,3.5061,7.9375,7.875,7.9375s7.9375-3.5698,7.9375-7.9375c0-4.3679-3.5686-7.8751-7.9375-7.8751zm-54.906,3.1875,0,2.8438,7.375,0,0-2.8125-3.6875-0.031-3.6875,0zm2.5625,5.0313,0,13.031a1.1094,1.1094,0,0,0,2.2188,0v-13.031h-2.2188zm-4.8438,19.219c-2.1973,0-3.9375,1.7088-3.9375,3.9062v3.6563c0,2.1973,1.7402,3.9375,3.9375,3.9375h74.75c2.1973,0,3.9375-1.7402,3.9375-3.9375v-3.6563c0-2.1974-1.7402-3.9062-3.9375-3.9062h-0.78125-34.844-39.125z"></path></g></svg>