<svg height='300px' width='300px'  fill="#000000" xmlns="http://www.w3.org/2000/svg" xmlns:xlink="http://www.w3.org/1999/xlink" viewBox="0 0 20 16" version="1.1" x="0px" y="0px"><title>wifi</title><g stroke="none" stroke-width="1" fill="none" fill-rule="evenodd"><g transform="translate(-20.000000, -142.000000)" fill="#000000" fill-rule="nonzero"><path d="M30,154 C31.1045695,154 32,154.895431 32,156 C32,157.104569 31.1045695,158 30,158 C28.8954305,158 28,157.104569 28,156 C28,154.895431 28.8954305,154 30,154 Z M30,150 C31.5172526,150 32.9469615,150.566966 34.0414191,151.565175 L34.2426407,151.757359 L32.8284271,153.171573 C32.0824741,152.42562 31.0761957,152 30,152 C29.0006754,152 28.0616367,152.366989 27.3353351,153.016667 L27.1715729,153.171573 L25.7573593,151.757359 C26.8746669,150.640052 28.3879192,150 30,150 Z M30,146 C32.5754168,146 34.9980785,146.979312 36.8348475,148.700273 L37.0710678,148.928932 L35.6568542,150.343146 C34.165597,148.851889 32.1515064,148 30,148 C27.9509463,148 26.0265328,148.772688 24.5596976,150.134481 L24.3431458,150.343146 L22.9289322,148.928932 C24.791544,147.06632 27.3126085,146 30,146 Z M30,142 C33.6329538,142 37.04793,143.391427 39.6264535,145.834715 L39.8994949,146.100505 L38.4852814,147.514719 C36.2487199,145.278157 33.226817,144 30,144 C26.8926948,144 23.9754059,145.185232 21.7664278,147.270172 L21.5147186,147.514719 L20.1005051,146.100505 C22.7084211,143.492589 26.2372979,142 30,142 Z"></path></g></g></svg>